<?xml version="1.0" encoding="UTF-8"?>
<svg width="512px" height="512px" viewBox="0 0 512 512" version="1.1" xmlns="http://www.w3.org/2000/svg" xmlns:xlink="http://www.w3.org/1999/xlink">
    <title>round-logo-bg</title>
    <g id="round-logo-bg" stroke="none" stroke-width="1" fill="none" fill-rule="evenodd">
        <circle id="Oval" fill="#FFFFFF" cx="256.5" cy="256.5" r="244.5"></circle>
        <g id="footer-logo" transform="translate(90.000000, 88.000000)" fill-rule="nonzero">
            <path d="M127.61615,225 L70,305.069694 C95.5917946,322.4346 124.849202,333.513299 158,335 L158,235.734632 C146.465324,234.473246 136.941456,230.832154 127.61615,225 Z" id="Shape" fill="#104A70"></path>
            <path d="M158,98.6108577 L157.333466,0 C124.586975,1.56392708 95.4870625,12.0177396 70,29.3781975 L127.499327,109 C136.622582,103.351397 146.658091,99.737812 158,98.6108577 Z" id="Shape" fill="#ED7324"></path>
            <path d="M258,27.5857738 C232.496964,10.1331891 202.562685,0.977470867 169.625185,0 L169,98.5271332 C180.316384,99.3469475 191.046702,102.332246 200.190779,108 L258,27.5857738 Z" id="Shape" fill="#FBBC05"></path>
            <path d="M102.628125,194 L9,225.01841 C19.9398236,255.645943 38.6070017,281.433073 63.6494963,301 L122,220.685228 C113.599919,213.523685 106.887321,204.400152 102.628125,194 Z" id="Shape" fill="#0F1E2A"></path>
            <path d="M122,114.896485 L64.3457959,35 C47.5236157,48.2097334 33.8016808,64.2870965 22.9415923,82.9278088 C17.650521,92.009626 13.5693569,101.301149 10,111.362351 L103.104953,142 C107.325902,131.555323 113.629107,122.104109 122,114.896485 Z" id="Shape" fill="#DF5216"></path>
            <path d="M98.6783081,167.766483 C98.5438635,161.933086 99.172369,155.738566 100.431559,150.453058 L6.76041308,120 C2.42056214,135.104879 0,150.487784 0,167 C0,183.608171 1.88277163,198.823155 6.26221975,214 L101,183.991354 C99.7012125,178.625884 98.8127527,173.599881 98.6783081,167.766483 Z" id="Shape" fill="#D53C0D"></path>
            <path d="M208,220.795696 L266.823064,301 C292.021617,281.38674 312.0372,255.294697 323,224.641018 L228.438046,194 C224.002923,204.343475 216.705283,213.735812 208,220.795696 Z" id="Shape" fill="#378A9B"></path>
            <path d="M169,236.019957 L169,336 C201.827424,334.974644 232.605643,325.166477 258,307.656555 L199.936207,227 C190.720796,232.624414 180.28162,235.318634 169,236.019957 Z" id="Shape" fill="#1D77B2"></path>
            <path d="M324.953622,121 L213,155.536228 C214.251738,160.994857 214.75245,163.684337 214.736136,168.497106 C214.719822,173.309874 214.132078,175.860056 213,181.33645 L325.350074,216 C329.746742,200.990194 332,184.89885 332,168.5 C332.008629,152.013795 329.542227,136.339457 324.953622,121 Z" id="Shape" fill="#539E82"></path>
        </g>
    </g>
</svg>